M48
;FILE_FORMAT=3:3
METRIC,000.000
;TYPE=PLATED
T01C0.457
T02C1.000
T03C1.016
;TYPE=NON_PLATED
T04C3.000
%
T01
X+120650Y+086995
X+118745Y+096520
X+128270Y+066675
X+124778
X+125095Y+079375
X+128270Y+086995
X+124460
X+126365Y+096520
X+133985Y+055563
X+135255Y+079375
X+131445Y+086995
X+135255Y+085090
X+143193Y+054610
X+139700Y+059373
X+150178Y+054293
X+149860Y+080645
X+154940Y+057150
X+153670Y+059690
Y+074613
X+156210Y+077153
Y+082233
X+173355Y+054928
X+171768Y+074295
X+116205Y+053658
X+127953
X+126365Y+052705
X+128270Y+083185
X+133985
X+153670Y+052705
X+154940Y+053975
X+122555Y+096520
X+137160Y+059373
X+137478Y+057468
X+152400Y+074613
X+129540Y+079375
X+136843
X+136525Y+085090
X+130175Y+096520
T02
X+120650Y+078390
Y+076390
Y+072390
Y+074390
X+112713Y+078390
Y+076390
Y+072390
Y+074390
T03
X+126683Y+062548
Y+065088
X+149225Y+099695
X+154305
X+137478Y+062548
Y+065088
X+132080Y+062548
Y+065088
X+160338Y+055563
X+157798
X+111760Y+081915
Y+089535
Y+086995
Y+084455
X+136144Y+050800
X+141224
X+143764
X+148844
X+151384
X+138684
X+146304
X+153924
X+132080Y+054293
Y+059373
Y+056833
X+144780Y+099060
X+139700
X+137160
X+132080
X+142240
X+134620
X+166370Y+061278
Y+057778
X+168910Y+050165
Y+053665
X+160020Y+089535
Y+092075
Y+082550
Y+085090
X+166370Y+082225
Y+085725
Y+089210
Y+092710
Y+075240
Y+078740
X+160020Y+075565
Y+078105
X+119698Y+059690
Y+064770
Y+067310
X+122238Y+059690
Y+064770
Y+067310
X+119698Y+062230
X+122238
X+150813Y+062548
X+145733
X+143193
X+150813Y+065088
X+145733
X+143193
X+148273Y+062548
Y+065088
X+151130Y+092710
X+153670
X+146050
X+143510
X+138430
X+135890
X+151130Y+095250
X+153670
X+146050
X+143510
X+138430
X+135890
X+140970Y+092710
X+148590
X+140970Y+095250
X+148590
X+160020Y+064453
Y+066993
X+166370Y+068255
Y+071755
Y+064763
Y+096195
Y+099695
X+114300Y+050800
X+119380
X+121920
X+127000
X+129540
X+116840
X+124460
X+132080
X+130175Y+073343
X+132715
X+135255
X+127635
X+127000Y+099060
X+121920
X+119380
X+114300
X+124460
X+116840
X+160020Y+096520
Y+099060
T04
X+111760Y+066040
Y+093980
X+162560Y+050800
T00
M30
